# xmcd
#
# Track frame offsets: 
#        150
#        15188
#        29519
#        42635
#        56453
#        70764
#        87274
#        100451
#        116745
#        132416
#        147115
#        159811
#
# Disc length: 2397 seconds
#
# Revision: 0
# Processed by: cddbd v1.5.2PL0 Copyright (c) Steve Scherf et al.
# Submitted via: ExactAudioCopy v0.99pb5
#
DISCID=9c095b0c
DTITLE=one night band - bells in my head
DYEAR=2007
DGENRE=Rock
TTITLE0=loan alone
TTITLE1=bells in my head
TTITLE2=the kings of pop 'n' roll
TTITLE3=sonnet
TTITLE4=under my hood
TTITLE5=life from a magazine
TTITLE6=honey
TTITLE7=dont apologize
TTITLE8=teena
TTITLE9=touch me
TTITLE10=im home
TTITLE11=dirty rain
EXTD=
EXTT0=
EXTT1=
EXTT2=
EXTT3=
EXTT4=
EXTT5=
EXTT6=
EXTT7=
EXTT8=
EXTT9=
EXTT10=
EXTT11=
PLAYORDER=
